<svg width="152" height="40" viewBox="0 0 152 40" fill="none" xmlns="http://www.w3.org/2000/svg">
<path d="M0 20C0 8.95431 8.95431 0 20 0C31.0457 0 40 8.95431 40 20C40 31.0457 31.0457 40 20 40C8.95431 40 0 31.0457 0 20Z" fill="#1A1A1A"/>
<path d="M30 30H10V10H30V30Z" stroke="white"/>
<path d="M24.1665 11.6667H15.8332C13.532 11.6667 11.6665 13.5322 11.6665 15.8334V24.1667C11.6665 26.4679 13.532 28.3334 15.8332 28.3334H24.1665C26.4677 28.3334 28.3332 26.4679 28.3332 24.1667V15.8334C28.3332 13.5322 26.4677 11.6667 24.1665 11.6667Z" stroke="white" stroke-width="1.66667" stroke-linecap="round" stroke-linejoin="round"/>
<path d="M23.3333 19.475C23.4361 20.1685 23.3176 20.8769 22.9947 21.4992C22.6718 22.1215 22.1609 22.6262 21.5346 22.9414C20.9083 23.2566 20.1986 23.3663 19.5064 23.255C18.8142 23.1436 18.1747 22.8167 17.679 22.321C17.1832 21.8252 16.8564 21.1857 16.745 20.4935C16.6336 19.8013 16.7433 19.0916 17.0585 18.4653C17.3737 17.8391 17.8784 17.3281 18.5007 17.0052C19.1231 16.6823 19.8314 16.5638 20.5249 16.6667C21.2324 16.7716 21.8873 17.1012 22.393 17.6069C22.8987 18.1126 23.2283 18.7676 23.3333 19.475Z" stroke="white" stroke-width="1.66667" stroke-linecap="round" stroke-linejoin="round"/>
<path d="M24.5835 15.4167H24.5918" stroke="white" stroke-width="1.66667" stroke-linecap="round" stroke-linejoin="round"/>
<path d="M56 20C56 8.95431 64.9543 0 76 0C87.0457 0 96 8.95431 96 20C96 31.0457 87.0457 40 76 40C64.9543 40 56 31.0457 56 20Z" fill="#1A1A1A"/>
<path d="M86 30H66V10H86V30Z" stroke="white"/>
<path d="M84.3332 13.3334C84.3332 13.3334 83.7498 15.0834 82.6665 16.1668C83.9998 24.5001 74.8332 30.5834 67.6665 25.8334C69.4998 25.9168 71.3332 25.3334 72.6665 24.1668C68.4998 22.9168 66.4165 18.0001 68.4998 14.1668C70.3332 16.3334 73.1665 17.5834 75.9998 17.5001C75.2498 14.0001 79.3332 12.0001 81.8332 14.3334C82.7498 14.3334 84.3332 13.3334 84.3332 13.3334Z" stroke="white" stroke-width="1.66667" stroke-linecap="round" stroke-linejoin="round"/>
<path d="M112 20C112 8.95431 120.954 0 132 0C143.046 0 152 8.95431 152 20C152 31.0457 143.046 40 132 40C120.954 40 112 31.0457 112 20Z" fill="#1A1A1A"/>
<path d="M142 30H122V10H142V30Z" stroke="white"/>
<path d="M137 11.6667H134.5C133.395 11.6667 132.335 12.1057 131.554 12.8871C130.772 13.6685 130.333 14.7283 130.333 15.8334V18.3334H127.833V21.6667H130.333V28.3334H133.667V21.6667H136.167L137 18.3334H133.667V15.8334C133.667 15.6124 133.755 15.4004 133.911 15.2442C134.067 15.0879 134.279 15.0001 134.5 15.0001H137V11.6667Z" stroke="white" stroke-width="1.66667" stroke-linecap="round" stroke-linejoin="round"/>
</svg>
