<svg width="26" height="26" viewBox="0 0 26 26" fill="none" xmlns="http://www.w3.org/2000/svg">
<path d="M10.4246 16.9168C10.3204 16.513 10.11 16.1446 9.81511 15.8497C9.52027 15.5549 9.15181 15.3445 8.74806 15.2403L1.59056 13.3946C1.46844 13.36 1.36097 13.2864 1.28444 13.1851C1.20791 13.0839 1.1665 12.9604 1.1665 12.8335C1.1665 12.7065 1.20791 12.583 1.28444 12.4818C1.36097 12.3805 1.46844 12.307 1.59056 12.2723L8.74806 10.4255C9.15167 10.3214 9.52003 10.1111 9.81486 9.81651C10.1097 9.52188 10.3202 9.15366 10.4246 8.75013L12.2702 1.59263C12.3045 1.47003 12.378 1.36203 12.4794 1.28509C12.5809 1.20815 12.7047 1.1665 12.832 1.1665C12.9593 1.1665 13.0831 1.20815 13.1845 1.28509C13.2859 1.36203 13.3594 1.47003 13.3937 1.59263L15.2382 8.75013C15.3424 9.15388 15.5528 9.52234 15.8477 9.81718C16.1425 10.112 16.511 10.3225 16.9147 10.4266L24.0722 12.2711C24.1953 12.3051 24.3039 12.3785 24.3812 12.4801C24.4586 12.5816 24.5005 12.7058 24.5005 12.8335C24.5005 12.9611 24.4586 13.0853 24.3812 13.1869C24.3039 13.2884 24.1953 13.3618 24.0722 13.3958L16.9147 15.2403C16.511 15.3445 16.1425 15.5549 15.8477 15.8497C15.5528 16.1446 15.3424 16.513 15.2382 16.9168L13.3926 24.0743C13.3582 24.1969 13.2848 24.3049 13.1834 24.3818C13.0819 24.4588 12.9581 24.5004 12.8308 24.5004C12.7035 24.5004 12.5797 24.4588 12.4783 24.3818C12.3768 24.3049 12.3034 24.1969 12.2691 24.0743L10.4246 16.9168Z" stroke="#B8860B" stroke-width="2.33333" stroke-linecap="round" stroke-linejoin="round"/>
</svg>
